<?xml version="1.0" encoding="UTF-8" standalone="no"?>
<!-- Created with Inkscape (http://www.inkscape.org/) -->
<svg
   xmlns:svg="http://www.w3.org/2000/svg"
   xmlns="http://www.w3.org/2000/svg"
   version="1.0"
   width="744.09448"
   height="292.32281"
   id="svg6207">
  <defs
     id="defs6209" />
  <g
     transform="translate(-1851.1989,1844.9749)"
     id="layer1">
    <g
       transform="translate(17.716541,17.790807)"
       style="fill:#000000"
       id="g7661">
      <path
         d="M 2012.2173,-1665.1055 L 1986.5445,-1665.1055 L 1986.5445,-1762.9773 L 2007.6186,-1762.9773 L 2036.0041,-1721.979 L 2064.2539,-1762.9773 L 2085.378,-1762.9773 L 2085.378,-1665.1055 L 2059.6286,-1665.1055 L 2059.6286,-1718.7292 L 2036.0041,-1686.1047 L 2012.2173,-1718.7292 L 2012.2173,-1665.1055"
         style="fill:#000000;fill-rule:evenodd;stroke:none"
         id="path7606" />
      <path
         d="M 2289.2449,-1665.1055 L 2314.8694,-1665.1055 L 2314.8694,-1762.9773 L 2289.2449,-1762.9773 L 2289.2449,-1665.1055 z "
         style="fill:#000000;fill-rule:nonzero;stroke:none"
         id="path7608" />
      <path
         d="M 2354.3681,-1762.9773 L 2370.7428,-1737.7284 L 2394.742,-1774.6018 L 2416.2408,-1762.103 L 2385.4922,-1715.1047 L 2418.1159,-1665.1055 L 2388.742,-1665.1055 L 2370.8677,-1692.4802 L 2352.8686,-1665.1055 L 2323.4939,-1665.1055 L 2356.1175,-1715.1047 L 2324.8694,-1762.9773 L 2354.3681,-1762.9773"
         style="fill:#000000;fill-rule:nonzero;stroke:none"
         id="path7610" />
      <path
         d="M 2205.4988,-1844.9749 C 2399.2416,-1844.9749 2559.8603,-1788.7267 2559.8603,-1716.6043 C 2559.8603,-1644.4819 2399.2416,-1588.2337 2205.4988,-1588.2337 C 2011.7802,-1588.2337 1851.1989,-1644.4819 1851.1989,-1716.6043 C 1851.1989,-1788.7267 2011.7802,-1844.9749 2205.4988,-1844.9749 z M 2205.4988,-1840.9749 C 2010.0549,-1840.9749 1855.1481,-1784.1022 1855.1481,-1716.6043 C 1855.1481,-1649.1072 2010.0549,-1592.2337 2205.4988,-1592.2337 C 2400.991,-1592.2337 2555.8611,-1649.1072 2555.8611,-1716.6043 C 2555.8611,-1784.1022 2400.991,-1840.9749 2205.4988,-1840.9749"
         style="fill:#000000;fill-rule:nonzero;stroke:none"
         id="path7612" />
      <path
         d="M 1926.5586,-1716.6043 C 1926.5586,-1778.352 2051.5046,-1828.4753 2205.4988,-1828.4753 C 2359.6179,-1828.4753 2484.4889,-1778.352 2484.4889,-1716.6043 C 2484.4889,-1654.7316 2359.6179,-1604.6084 2205.4988,-1604.6084 C 2051.5046,-1604.6084 1926.5586,-1654.7316 1926.5586,-1716.6043 z M 1866.6852,-1716.6043 C 1866.6852,-1782.2271 2018.3805,-1835.4753 2205.4988,-1835.4753 C 2392.6163,-1835.4753 2544.3616,-1782.2271 2544.3616,-1716.6043 C 2544.3616,-1650.9823 2392.6163,-1597.7333 2205.4988,-1597.7333 C 2018.3805,-1597.7333 1866.6852,-1650.9823 1866.6852,-1716.6043"
         style="fill:#000000;fill-rule:evenodd;stroke:none"
         id="path7614" />
      <path
         d="M 2276.6212,-1718.3537 L 2276.6212,-1670.8557 C 2265.3714,-1665.7308 2251.9967,-1662.7308 2237.7469,-1662.7308 C 2208.4988,-1662.7308 2184.8743,-1685.8549 2184.8743,-1714.2296 C 2184.8743,-1746.3528 2210.249,-1765.7275 2237.7469,-1765.7275 C 2251.9967,-1765.7275 2262.8718,-1761.9782 2273.2465,-1755.7275 L 2260.8718,-1737.6035 C 2254.3723,-1741.7284 2246.4972,-1744.7284 2237.7469,-1744.103 C 2220.498,-1742.9781 2209.9984,-1731.7283 2209.9984,-1714.3545 C 2209.9984,-1697.73 2221.4971,-1685.1047 2237.622,-1684.481 C 2244.622,-1684.1055 2249.4972,-1684.7308 2253.4972,-1685.73 L 2253.4972,-1700.6051 L 2235.622,-1700.6051 L 2247.1216,-1718.3537 L 2276.6212,-1718.3537"
         style="fill:#000000;fill-rule:nonzero;stroke:none"
         id="path7616" />
      <path
         d="M 2093.6278,-1665.1055 L 2126.876,-1762.9773 L 2154.3755,-1762.9773 L 2187.6245,-1665.1055 L 2160.2498,-1665.1055 L 2154.8751,-1683.2304 L 2126.3764,-1683.2304 L 2121.0008,-1665.1055 L 2093.6278,-1665.1055 z M 2132.1257,-1701.4794 L 2149.1258,-1701.4794 L 2140.6262,-1730.7283 L 2132.1257,-1701.4794"
         style="fill:#000000;fill-rule:evenodd;stroke:none"
         id="path7618" />
    </g>
  </g>
</svg>
