<?xml version="1.0" encoding="UTF-8" ?>
<!DOCTYPE svg PUBLIC "-//W3C//DTD SVG 1.1//EN" "http://www.w3.org/Graphics/SVG/1.1/DTD/svg11.dtd">
<svg width="225pt" height="55pt" viewBox="0 0 225 55" version="1.1" xmlns="http://www.w3.org/2000/svg">
<g id="#dc0606ff">
<path fill="#dc0606" opacity="1.00" d=" M 33.28 0.00 L 35.69 0.00 C 40.12 -0.00 47.29 1.17 46.49 7.12 C 43.35 7.96 44.42 11.96 43.16 14.29 C 43.30 18.45 45.69 22.58 44.65 26.87 C 43.06 31.58 40.93 36.13 39.88 41.03 C 39.15 42.85 41.09 44.07 41.51 45.67 C 40.70 47.58 36.85 47.34 36.74 45.08 C 36.46 40.42 38.75 35.76 37.79 31.10 C 35.74 31.26 33.73 31.77 31.66 31.80 C 29.80 37.48 28.28 44.14 31.22 49.72 C 31.18 52.26 26.05 51.85 26.67 49.12 C 27.28 42.93 25.89 36.93 24.72 30.92 C 23.30 31.51 22.52 32.89 21.57 34.01 C 21.08 36.82 24.44 36.89 24.98 39.11 C 21.64 40.78 20.07 37.35 19.56 34.61 C 18.21 32.51 20.32 30.42 19.88 28.24 C 19.01 27.15 17.71 25.89 16.18 26.30 C 11.21 29.40 7.49 34.15 5.70 39.76 C 5.44 41.56 3.65 42.59 1.94 42.28 C 1.95 41.56 1.99 40.84 2.05 40.12 C 4.70 37.93 6.15 34.56 6.46 31.16 C 7.68 26.10 8.69 20.58 12.50 16.73 C 10.08 14.07 8.40 10.19 9.73 6.64 C 10.42 9.72 11.33 14.29 15.01 14.82 C 19.11 13.34 23.49 13.29 27.75 12.63 C 27.86 10.69 28.83 7.11 25.71 7.36 C 25.75 6.51 25.81 4.81 25.84 3.96 C 26.62 0.71 30.77 1.12 33.28 0.00 Z" />
<path fill="#dc0606" opacity="1.00" d=" M 89.33 9.83 C 92.22 10.35 95.18 9.81 98.05 10.03 C 100.65 16.27 102.98 22.67 105.31 29.03 C 105.51 28.82 105.90 28.39 106.10 28.18 C 108.43 22.19 110.94 16.26 113.29 10.27 C 115.94 9.49 118.75 10.14 121.48 9.87 L 121.77 10.65 C 116.01 24.77 110.41 38.95 104.74 53.11 L 104.23 53.59 C 101.26 53.47 98.28 53.65 95.31 53.50 C 97.26 49.39 99.12 45.23 100.89 41.04 C 97.25 31.70 93.66 22.33 90.03 12.99 C 89.72 11.96 88.84 10.94 89.33 9.83 Z" />
<path fill="#dc0606" opacity="1.00" d=" M 131.86 12.77 C 135.68 9.33 141.71 8.05 146.27 10.75 C 149.04 12.51 150.64 15.73 150.72 18.98 C 150.80 26.88 150.71 34.80 150.77 42.71 C 147.90 42.77 145.04 42.76 142.18 42.71 C 142.18 35.12 142.20 27.52 142.18 19.93 C 141.92 18.74 141.58 17.01 139.96 17.18 C 136.38 17.05 133.39 20.00 131.84 22.96 C 131.85 29.55 131.89 36.15 131.83 42.74 C 129.00 42.72 126.17 42.81 123.35 42.69 C 123.38 31.87 123.42 21.06 123.33 10.24 C 126.08 9.60 128.95 10.02 131.76 9.92 C 131.79 10.63 131.84 12.06 131.86 12.77 Z" />
<path fill="#dc0606" opacity="1.00" d=" M 156.15 18.13 C 158.61 11.62 166.27 7.60 172.97 9.92 C 174.07 10.13 175.49 11.80 176.37 10.27 C 178.92 9.58 181.97 9.79 184.62 10.25 C 184.42 19.71 184.75 29.17 184.44 38.62 C 184.34 43.24 183.23 48.40 179.28 51.27 C 173.71 55.31 166.49 53.97 160.06 54.38 C 160.20 51.95 160.04 49.52 160.19 47.10 C 164.21 46.38 168.51 47.63 172.47 46.30 C 175.15 45.07 176.06 41.97 176.00 39.24 C 171.04 43.31 163.07 43.10 158.67 38.31 C 153.96 32.85 153.65 24.62 156.15 18.13 M 163.57 26.91 C 163.56 29.80 164.49 33.58 167.82 34.20 C 171.10 34.52 174.23 32.61 176.10 30.03 C 175.93 26.44 176.45 22.72 175.84 19.21 C 173.89 17.18 170.80 15.96 168.01 16.80 C 164.10 18.36 163.45 23.22 163.57 26.91 Z" />
<path fill="#dc0606" opacity="1.00" d=" M 57.20 10.18 C 67.29 9.60 77.43 10.14 87.56 9.90 C 82.57 18.56 76.90 26.86 72.04 35.56 C 77.34 35.55 82.64 35.44 87.93 35.61 C 87.76 37.98 87.95 40.37 87.83 42.74 C 77.59 42.75 67.35 42.73 57.12 42.75 C 62.45 34.18 68.12 25.79 73.49 17.23 C 68.06 17.21 62.63 17.27 57.19 17.20 C 57.24 14.86 57.20 12.52 57.20 10.18 Z" />
<path fill="#dc0606" opacity="1.00" d=" M 190.70 11.97 C 196.07 9.78 202.25 8.22 207.90 10.23 C 211.10 11.23 213.12 14.41 213.47 17.63 C 214.12 23.82 213.13 30.13 214.01 36.27 C 215.10 36.45 216.21 36.47 217.34 36.32 C 217.52 38.21 217.82 40.08 217.92 41.97 C 214.20 44.33 209.01 43.91 206.34 40.34 C 202.37 43.78 195.99 44.70 191.67 41.38 C 186.50 37.57 186.95 28.65 192.36 25.25 C 196.04 22.66 200.68 22.17 205.06 22.09 C 205.23 20.14 205.33 17.40 203.02 16.69 C 198.59 15.95 194.43 18.14 190.68 20.21 C 190.51 17.49 190.47 14.69 190.70 11.97 M 197.07 31.18 C 195.74 32.85 197.02 35.52 199.06 35.81 C 201.16 36.08 203.19 35.10 204.83 33.87 C 205.43 32.15 204.92 30.25 205.08 28.46 C 202.25 28.28 198.94 28.85 197.07 31.18 Z" />
</g>
</svg>
